<svg width="17" height="23" viewBox="0 0 17 23" fill="none" xmlns="http://www.w3.org/2000/svg">
<path d="M1.69578 22.96C1.48245 22.96 1.29578 22.8933 1.13578 22.76C0.975781 22.6267 0.895781 22.4267 0.895781 22.16V20.4C0.895781 20.08 0.962448 19.8267 1.09578 19.64C1.25578 19.4533 1.49578 19.2667 1.81578 19.08L12.4958 11.76L1.81578 4.44C1.49578 4.22667 1.25578 4.02667 1.09578 3.84C0.962448 3.65333 0.895781 3.4 0.895781 3.08V1.32C0.895781 1.05333 0.975781 0.853333 1.13578 0.719999C1.29578 0.586666 1.48245 0.52 1.69578 0.52C1.85578 0.52 2.02911 0.573333 2.21578 0.68C2.40245 0.759999 2.54911 0.839999 2.65578 0.919999L15.2158 9.56C15.6424 9.85333 15.9358 10.1333 16.0958 10.4C16.2824 10.6667 16.3758 11 16.3758 11.4V12.08C16.3758 12.4533 16.2824 12.7867 16.0958 13.08C15.9358 13.3467 15.6424 13.6267 15.2158 13.92L2.65578 22.56C2.54911 22.64 2.40245 22.7333 2.21578 22.84C2.02911 22.92 1.85578 22.96 1.69578 22.96Z" fill="#FCFFAF"/>
</svg>
